<svg id="Layer_1" data-name="Layer 1" xmlns="http://www.w3.org/2000/svg" viewBox="0 0 640 447.98"><defs><style>.cls-1{fill:#19877a;}</style></defs><path class="cls-1" d="M623.1,136.9,340.4,35.7a63,63,0,0,0-42.43,0L16.05,136.9a24.64,24.64,0,0,0,0,46.19l60,21.51a138.25,138.25,0,0,0-24.55,54A32,32,0,0,0,32,288c0,9.95,4.81,18.49,11.94,24.36l-24.83,149A16,16,0,0,0,34.89,480H93.11a16,16,0,0,0,15.78-18.63l-24.83-149C91.19,306.5,96,297.1,96,288c0-10.29-5.17-19-12.72-24.89a106.28,106.28,0,0,1,24.94-47l190.6,68.23a63,63,0,0,0,42.43,0L624,183.11A24.48,24.48,0,0,0,640,160,24.11,24.11,0,0,0,623.1,136.9Zm-272,177.5A85.89,85.89,0,0,1,320,320a95,95,0,0,1-32-5.55L142.8,262.5,128,405.3c0,41.3,85.1,74.7,192,74.7,105.1,0,192-33.4,192-74.67l-14.78-142.9Z" transform="translate(0 -32.02)"/></svg>